<svg width="232" height="118" viewBox="0 0 232 118" fill="none" xmlns="http://www.w3.org/2000/svg">
<path d="M16.5531 79.7297V63.7838H0.51328V47.8378H16.5531V31.8919H0.51328V15.9459H16.5531V0H48.6328V15.9459H64.6726V31.8919H48.6328V47.8378H64.6726V63.7838H48.6328V79.7297H16.5531ZM16.5531 31.2541H48.6328V16.5838H16.5531V31.2541ZM16.5531 63.1459H48.6328V48.4757H16.5531V63.1459Z" fill="#FFDE59"/>
<path d="M64.6726 79.7297V0H112.792V15.9459H128.832V63.7838H112.792V79.7297H64.6726ZM80.7124 31.8919H112.15V15.9459H80.7124V31.8919ZM80.7124 63.7838H112.15V47.8378H80.7124V63.7838Z" fill="#FFFFF0"/>
<path d="M148.08 79.7297V0H164.119V79.7297H148.08Z" fill="#FFFFF0"/>
<path d="M199.407 79.7297V15.9459H183.367V0H231.487V15.9459H215.447V79.7297H199.407Z" fill="#FFFFF0"/>
<path d="M6.04167 93.9748V87.9685H24.1667V93.9748H6.04167ZM18.125 111.994V105.987H6.04167V99.9811H0V93.9748H6.04167V99.9811H18.125V105.987H24.1667V111.994H18.125ZM0 118V111.994H18.125V118H0Z" fill="#FFFFF0"/>
<path d="M37.4583 118V111.994H31.4167V93.9748H37.4583V87.9685H49.5417V93.9748H55.5833V111.994H49.5417V118H37.4583ZM37.4583 111.753H49.5417V94.215H37.4583V111.753Z" fill="#FFFFF0"/>
<path d="M62.8333 118V87.9685H80.9583V93.9748H68.875V99.9811H80.9583V105.987H68.875V118H62.8333Z" fill="#FFFFF0"/>
<path d="M94.25 118V93.9748H88.2083V87.9685H106.333V93.9748H100.292V118H94.25Z" fill="#FFFFF0"/>
<path d="M119.625 118V111.994H113.583V87.9685H119.625V111.994H125.667V118H119.625ZM137.75 111.994V87.9685H143.792V111.994H137.75ZM131.708 118V111.994H125.667V93.9748H131.708V111.994H137.75V118H131.708Z" fill="#FFFFF0"/>
<path d="M151.042 118V93.9748H157.083V87.9685H169.167V93.9748H175.208V118H169.167V105.987H157.083V118H151.042ZM157.083 99.9811H169.167V94.215H157.083V99.9811Z" fill="#FFFFF0"/>
<path d="M182.458 118V87.9685H200.583V93.9748H206.625V99.9811H200.583V111.994H206.625V118H200.583V111.994H194.542V105.987H188.5V118H182.458ZM188.5 99.9811H200.342V93.9748H188.5V99.9811Z" fill="#FFFFF0"/>
<path d="M213.875 118V87.9685H232V93.9748H219.917V99.9811H232V105.987H219.917V111.994H232V118H213.875Z" fill="#FFFFF0"/>
</svg>
